<?xml version="1.0" encoding="UTF-8" standalone="no"?><svg xmlns="http://www.w3.org/2000/svg" preserveAspectRatio="xMidYMid meet" width="1024" height="1024" viewBox="0 0 1024 1024" version="1.1">
	<path d="M 759.500 262.130 C 690.003 283.170, 598.177 301.233, 525.500 308.160 C 498.747 310.710, 443.463 311.259, 422.500 309.183 C 367.741 303.759, 317.231 293.034, 258.768 274.417 C 252.866 272.538, 247.506 271, 246.856 271 C 245.954 271, 245.830 286.500, 246.330 336.750 C 246.690 372.913, 247.442 453.350, 248 515.500 C 248.559 577.650, 249.128 631.987, 249.265 636.250 C 249.403 640.513, 249.470 644, 249.415 644 C 248.157 644, 196.518 650.195, 194.239 650.620 C 188.966 651.601, 189.558 652.796, 195.736 653.643 C 198.906 654.077, 243.350 654.271, 294.500 654.074 C 403.113 653.654, 475.587 653.669, 672.500 654.149 C 751.700 654.342, 818.188 654.142, 820.250 653.705 C 822.313 653.267, 824 652.539, 824 652.086 C 824 651.634, 822.313 651.021, 820.250 650.725 C 818.188 650.429, 806.163 648.771, 793.529 647.039 C 780.894 645.307, 770.488 643.803, 770.403 643.695 C 770.319 643.588, 770.831 594.225, 771.542 534 C 773.749 346.929, 774.347 257.994, 773.397 258.097 C 772.904 258.151, 766.650 259.966, 759.500 262.130 M 758 267.973 C 744.921 272.236, 707.309 282.080, 682 287.866 C 624.578 300.991, 573.882 309.029, 516 314.185 C 496.604 315.912, 430.976 315.910, 412.500 314.180 C 381.211 311.252, 342.009 304.758, 311 297.368 C 298.842 294.470, 269.073 285.884, 262.682 283.431 C 261.091 282.821, 260.903 283.211, 261.182 286.551 C 261.455 289.827, 261.925 290.486, 264.500 291.203 C 315.931 305.518, 361.004 313.632, 414.500 318.203 C 437.328 320.154, 494.326 319.843, 516.500 317.646 C 589.985 310.367, 664.197 296.718, 736 277.276 C 747.275 274.224, 757.531 271.506, 758.792 271.238 L 761.083 270.751 760.429 362.625 C 759.529 489.047, 760.744 647, 762.617 647 C 763.775 647, 764.030 617.294, 764.245 457 C 764.499 267.559, 764.494 267, 762.500 267.079 C 761.400 267.122, 759.375 267.525, 758 267.973 M 255.734 281.734 C 255.512 282.155, 255.738 323, 256.236 372.500 C 256.734 422, 256.951 504.478, 256.718 555.784 C 256.410 623.500, 256.597 648.968, 257.397 648.703 C 258.939 648.192, 259.728 611.872, 260.150 522 C 260.471 453.760, 260.175 420.040, 258.358 317.723 C 257.798 286.169, 257.263 278.833, 255.734 281.734 M 742 307.110 C 704.738 314.727, 651.784 323.512, 622 327.019 C 617.875 327.505, 602.125 329.479, 587 331.405 C 547.520 336.434, 529.111 338.013, 477.500 340.798 L 464.500 341.500 464.701 382 L 464.902 422.500 469.201 422.500 L 473.500 422.500 474.651 393 C 475.284 376.775, 475.847 361.773, 475.901 359.662 L 476 355.824 479.750 356.385 C 492.707 358.324, 492.763 358.323, 493.477 356.072 C 494.129 354.018, 494.632 353.955, 508.326 354.223 L 522.500 354.500 522.500 364.500 C 522.500 370, 522.135 384.512, 521.690 396.750 C 520.887 418.812, 520.897 419, 522.940 419 C 524.980 419, 525 418.665, 525 384.884 L 525 350.767 531.500 351.181 C 537.808 351.583, 538 351.524, 538 349.196 C 538 346.884, 538.223 346.811, 544.250 347.149 L 550.500 347.500 550.813 344.250 L 551.127 341 559.563 341 L 568 341 568 376.441 C 568 409.950, 568.378 414.955, 570.734 412.600 C 571.064 412.269, 571.726 396.587, 572.204 377.750 C 572.683 358.912, 573.294 342.476, 573.562 341.225 C 574.028 339.055, 574.351 338.980, 580.525 339.613 L 587 340.276 587 336.529 L 587 332.781 594.750 333.233 C 600.900 333.591, 603.945 333.225, 609.500 331.459 C 620.263 328.036, 621.687 327.830, 623.317 329.460 C 624.599 330.742, 626.043 330.560, 635.074 327.979 C 640.737 326.360, 645.517 325.184, 645.698 325.365 C 645.879 325.546, 646.434 342.225, 646.931 362.431 C 647.428 382.636, 648.097 399.430, 648.417 399.751 C 648.738 400.071, 649 383.383, 649 362.667 C 649 341.950, 649.112 324.970, 649.250 324.934 C 651.805 324.261, 667.709 322.384, 668.250 322.692 C 668.663 322.926, 669 339.567, 669 359.670 L 669 396.223 672.750 395.522 C 674.813 395.137, 676.643 394.682, 676.817 394.511 C 676.991 394.340, 677.843 378.742, 678.710 359.850 C 679.577 340.957, 680.428 325.331, 680.601 325.125 C 680.775 324.919, 687.011 324.517, 694.458 324.233 L 708 323.716 707.999 326.608 C 707.996 332.092, 705.018 382.506, 704.534 385.250 C 704.116 387.625, 704.380 388, 706.466 388 C 707.795 388, 709.099 387.648, 709.365 387.218 C 709.631 386.788, 710.808 372.275, 711.981 354.968 C 713.154 337.661, 714.321 322.102, 714.575 320.394 C 715.020 317.400, 715.289 317.245, 721.961 316.144 C 725.769 315.515, 729.546 315, 730.353 315 C 731.309 315, 732.852 318.072, 734.775 323.808 C 737.678 332.464, 737.715 332.837, 736.912 345.558 C 736.462 352.676, 736.073 363.563, 736.047 369.750 C 735.993 382.749, 735.257 382.103, 747.053 379.420 L 754 377.840 754 341.420 C 754 312.906, 753.729 305.018, 752.750 305.084 C 752.063 305.131, 747.225 306.042, 742 307.110 M 721.500 319.877 L 718.500 320.518 716.880 342.509 C 715.989 354.604, 714.930 369.385, 714.527 375.355 L 713.793 386.211 718.147 385.502 C 720.541 385.113, 722.906 384.412, 723.403 383.944 C 724.202 383.192, 726.430 359.104, 728.463 329.250 L 729.160 319 726.830 319.118 C 725.549 319.183, 723.150 319.525, 721.500 319.877 M 268.663 351.596 C 268.298 369.047, 268 390.850, 268 400.045 L 268 416.763 276.571 417.477 C 281.285 417.870, 285.448 417.886, 285.821 417.513 C 286.194 417.139, 286.659 397.071, 286.853 372.917 C 287.199 329.924, 287.248 329, 289.187 329 C 290.277 329, 297.691 331.025, 305.662 333.500 C 313.634 335.975, 320.346 338, 320.578 338 C 320.810 338, 321 356.675, 321 379.500 L 321 421 324.654 421 L 328.308 421 327.664 406.250 C 327.311 398.137, 326.767 382.275, 326.455 371 L 325.890 350.500 329.195 344.500 C 332.487 338.523, 332.519 338.499, 337.500 338.176 C 346.119 337.616, 353.159 338.892, 353.741 341.119 C 354.203 342.886, 355.043 343.039, 362.875 342.782 L 371.500 342.500 371.761 382.250 C 371.981 415.562, 372.250 422, 373.425 422 C 374.607 422, 374.802 415.978, 374.664 383.750 L 374.500 345.500 386.125 345.219 C 396.762 344.963, 397.792 345.097, 398.239 346.805 C 398.697 348.559, 399.168 348.595, 406.094 347.419 C 410.147 346.731, 413.808 346.381, 414.231 346.643 C 414.654 346.904, 415 348.441, 415 350.059 C 415 352.488, 415.413 353, 417.375 353 C 418.681 353, 421.156 353.281, 422.875 353.625 C 425.740 354.198, 426 354.032, 426 351.625 L 426 349 434.750 349.015 C 439.563 349.024, 444.134 349.432, 444.909 349.923 C 446.097 350.675, 446.226 356.519, 445.729 387.157 L 445.139 423.500 450.567 423.500 L 455.994 423.500 455.997 382.444 L 456 341.388 427.250 340.177 C 380.351 338.201, 344.198 333.967, 292.500 324.393 C 282.050 322.458, 272.561 320.647, 271.413 320.370 C 269.340 319.868, 269.321 320.086, 268.663 351.596 M 656.750 327.728 L 653 328.121 653 363.560 C 653 383.052, 653.337 398.991, 653.750 398.981 C 654.163 398.970, 656.750 398.378, 659.500 397.666 L 664.500 396.370 664.763 361.685 L 665.026 327 662.763 327.168 C 661.518 327.261, 658.813 327.513, 656.750 327.728 M 683.996 329.750 C 683.993 330.712, 683.320 345.415, 682.500 362.421 C 681.680 379.428, 681.120 393.420, 681.255 393.514 C 681.390 393.608, 685.650 392.757, 690.722 391.623 L 699.943 389.560 700.479 385.530 C 701.213 380.009, 704 338.009, 704 332.476 L 704 328 694 328 C 685.145 328, 683.999 328.200, 683.996 329.750 M 634.750 331.771 L 630 333.351 630 351.516 C 630 361.506, 630.294 377.125, 630.652 386.225 L 631.305 402.769 635.402 402.241 C 643.640 401.179, 643.752 401.046, 643.362 392.830 C 643.171 388.798, 642.735 373.012, 642.393 357.750 C 641.951 337.974, 641.446 330.027, 640.636 330.096 C 640.011 330.148, 637.362 330.902, 634.750 331.771 M 614 333.709 C 611.525 334.510, 609.011 335.312, 608.412 335.489 C 607.673 335.709, 607.104 346.944, 606.636 370.546 C 606.257 389.650, 606.110 405.443, 606.310 405.643 C 607.023 406.356, 616.013 404.709, 617.382 403.615 C 618.504 402.718, 618.910 395.593, 619.455 367.250 C 619.828 347.863, 619.766 332.057, 619.317 332.126 C 618.867 332.195, 616.475 332.908, 614 333.709 M 290.994 367.750 C 290.991 386.313, 290.702 405.180, 290.351 409.678 L 289.715 417.856 293.107 418.385 C 294.973 418.676, 301.072 419.192, 306.660 419.531 L 316.819 420.147 317.183 380.824 C 317.383 359.196, 317.499 341.388, 317.442 341.252 C 317.259 340.819, 293.590 334, 292.267 334 C 291.269 334, 290.999 341.174, 290.994 367.750 M 590.660 352.750 C 590.301 361.413, 590.005 377.601, 590.003 388.725 L 590 408.950 593.250 408.334 C 600.317 406.995, 600 408.059, 600.004 385.715 C 600.006 374.597, 600.301 359.087, 600.659 351.250 L 601.311 337 596.312 337 L 591.313 337 590.660 352.750 M 335.341 358.613 C 335.703 367.801, 336 385.373, 336 397.660 L 336 420 343.617 420 L 351.233 420 350.495 383.750 C 350.089 363.813, 349.699 346.375, 349.629 345 C 349.505 342.599, 349.208 342.488, 342.091 342.203 L 334.682 341.906 335.341 358.613 M 576.599 366.648 C 575.365 413.213, 575.350 411.516, 577 411.336 C 577.825 411.247, 580.188 410.889, 582.250 410.541 L 586 409.909 586 376.955 C 586 349.660, 585.764 344, 584.625 344 C 583.869 344, 581.896 343.729, 580.240 343.398 L 577.230 342.796 576.599 366.648 M 366.500 345.588 C 365.950 345.728, 363.475 346.113, 361 346.444 L 356.500 347.046 356.760 381.273 C 356.903 400.098, 357.241 416.484, 357.513 417.686 C 357.952 419.634, 358.514 419.824, 362.671 419.435 C 365.237 419.194, 367.491 418.842, 367.680 418.653 C 368.587 417.747, 367.417 345.354, 366.500 345.588 M 554.833 379.249 C 555.016 398.086, 555.250 413.583, 555.352 413.685 C 555.454 413.788, 557.442 413.616, 559.769 413.304 L 564 412.737 564 378.868 L 564 345 559.250 344.999 L 554.500 344.999 554.833 379.249 M 386 349 L 378.500 349.500 378.525 358.250 C 378.539 363.063, 378.651 379.375, 378.775 394.500 L 379 422 387.335 422 L 395.670 422 395.225 385.750 C 394.981 365.813, 394.492 349.275, 394.140 349 C 393.788 348.725, 390.125 348.725, 386 349 M 403.500 351.878 C 400.729 352.471, 400.503 352.844, 400.545 356.760 C 400.570 359.092, 400.683 374.725, 400.795 391.500 L 401 422 405.371 422 L 409.742 422 410.312 417.250 C 410.625 414.637, 410.931 398.663, 410.991 381.750 L 411.101 351 408.801 351.118 C 407.535 351.183, 405.150 351.525, 403.500 351.878 M 542 383.569 L 542 416 546.514 416 L 551.028 416 550.764 383.835 L 550.500 351.670 546.250 351.404 L 542 351.138 542 383.569 M 429.660 377.162 C 429.297 390.451, 429 406.201, 429 412.162 L 429 423 434.861 423 L 440.721 423 441.352 417.750 C 441.699 414.863, 441.987 399.113, 441.991 382.750 L 442 353 436.160 353 L 430.320 353 429.660 377.162 M 528.700 354.926 C 528.590 355.242, 528.625 369.588, 528.778 386.806 L 529.056 418.112 533.278 417.806 L 537.500 417.500 537.500 386.500 L 537.500 355.500 533.200 354.926 C 530.835 354.611, 528.810 354.611, 528.700 354.926 M 415 389.916 L 415 423.110 419.750 422.805 L 424.500 422.500 425.159 390.500 C 425.522 372.900, 425.696 358.374, 425.545 358.219 C 425.394 358.064, 422.960 357.664, 420.136 357.330 L 415 356.721 415 389.916 M 498.604 368.500 C 498.296 374.550, 497.778 387.825, 497.453 398 C 497.128 408.175, 496.603 417.575, 496.287 418.889 L 495.713 421.278 506.107 420.546 C 511.823 420.143, 516.591 419.728, 516.701 419.622 C 517.061 419.280, 519.164 358.830, 518.827 358.508 C 518.647 358.336, 514.149 358.039, 508.832 357.848 L 499.164 357.500 498.604 368.500 M 479.661 365.202 C 479.341 367.566, 478.800 380.525, 478.459 394 C 478.118 407.475, 477.620 419.288, 477.352 420.250 C 476.927 421.776, 477.633 422, 482.874 422 C 486.178 422, 489.109 421.632, 489.387 421.183 C 489.665 420.733, 489.970 407.121, 490.065 390.933 L 490.238 361.500 485.240 361.202 L 480.242 360.904 479.661 365.202 M 688.623 382.519 C 686.422 384.721, 688.220 388.252, 691.318 387.811 C 693.004 387.571, 693.500 386.822, 693.500 384.514 C 693.500 381.021, 691.103 380.040, 688.623 382.519 M 740 385.533 C 706.374 393.184, 661.475 402.478, 636.500 406.957 C 630.450 408.042, 621.675 409.633, 617 410.493 C 597.507 414.079, 532.684 422.960, 508 425.427 C 458.642 430.358, 390.082 429.880, 300.458 423.978 C 263.985 421.577, 264 421.577, 264 423.500 C 264 424.325, 264.563 425.004, 265.250 425.009 C 265.938 425.014, 272.575 425.451, 280 425.981 C 346.701 430.743, 379.987 432.084, 430.828 432.060 C 492.032 432.030, 535.307 428.211, 601.500 417 C 638.818 410.680, 720.854 394.241, 753.750 386.492 C 754.987 386.200, 756 385.295, 756 384.481 C 756 382.444, 752.590 382.668, 740 385.533 M 657.229 390.171 C 655.494 391.906, 655.703 394.672, 657.627 395.410 C 659.840 396.259, 662.163 394.136, 661.798 391.598 C 661.450 389.172, 658.995 388.405, 657.229 390.171 M 634.667 393.667 C 634.300 394.033, 634 395.413, 634 396.733 C 634 398.761, 634.426 399.084, 636.750 398.816 C 638.910 398.568, 639.568 397.910, 639.816 395.750 C 640.084 393.426, 639.761 393, 637.733 393 C 636.413 393, 635.033 393.300, 634.667 393.667 M 608.667 396.667 C 608.300 397.033, 608 398.392, 608 399.686 C 608 401.731, 608.359 401.960, 610.750 401.436 C 615.575 400.378, 616 400.103, 616 398.031 C 616 396.396, 615.350 396, 612.667 396 C 610.833 396, 609.033 396.300, 608.667 396.667 M 592.667 399.667 C 591.428 400.906, 591.989 403.782, 593.590 404.396 C 595.848 405.263, 597 404.265, 597 401.441 C 597 399.741, 596.444 399, 595.167 399 C 594.158 399, 593.033 399.300, 592.667 399.667 M 579.152 400.885 C 577.295 402.062, 578.116 405.399, 580.368 405.832 C 582.898 406.320, 584.334 404.626, 583.532 402.101 C 582.827 399.879, 581.375 399.476, 579.152 400.885 M 301.050 406.907 C 300.278 408.349, 300.455 409.340, 301.773 410.968 C 304.746 414.640, 309.223 411.153, 306.961 406.928 C 305.638 404.456, 302.368 404.445, 301.050 406.907 M 557.667 407.667 C 556.669 408.664, 556.863 412, 557.918 412 C 560.197 412, 562 410.628, 562 408.893 C 562 407.042, 559.110 406.224, 557.667 407.667 M 544.659 409.484 C 542.600 411.543, 543.654 414.191, 546.377 413.803 C 547.872 413.590, 548.500 412.785, 548.500 411.083 C 548.500 408.109, 546.759 407.384, 544.659 409.484 M 340.184 411.750 C 340.450 414.069, 340.971 414.500, 343.500 414.500 C 346.029 414.500, 346.550 414.069, 346.816 411.750 C 347.110 409.197, 346.873 409, 343.500 409 C 340.127 409, 339.890 409.197, 340.184 411.750 M 361.250 410.662 C 360.563 410.940, 360 412.254, 360 413.583 C 360 415.479, 360.526 416, 362.441 416 C 365.380 416, 366.090 415.061, 365.335 412.174 C 364.777 410.041, 363.741 409.657, 361.250 410.662 M 503.750 410.668 C 502.695 410.957, 502 412.111, 502 413.573 C 502 415.788, 502.399 416, 506.566 416 C 510.958 416, 511.121 415.895, 510.816 413.250 C 510.492 410.432, 507.978 409.513, 503.750 410.668 M 747.500 411.058 C 743.706 411.843, 693.880 419.920, 667 424.107 C 637.805 428.655, 592.823 434.563, 571.722 436.621 C 567.994 436.985, 564.787 437.556, 564.595 437.891 C 563.987 438.954, 566.661 527.994, 567.321 528.655 C 567.669 529.002, 568.158 528.659, 568.409 527.893 C 568.854 526.537, 571.012 463.488, 571.024 451.500 C 571.028 448.200, 571.383 444.945, 571.814 444.266 C 572.245 443.587, 578.537 441.810, 585.796 440.316 L 598.995 437.599 608.460 442.300 C 613.666 444.885, 618.849 447, 619.977 447 C 621.104 447, 622.877 447.531, 623.916 448.180 C 625.396 449.104, 627.894 448.987, 635.434 447.640 C 640.729 446.694, 645.555 446.225, 646.158 446.597 C 646.941 447.082, 647.045 457.319, 646.521 482.519 L 645.788 517.763 648.303 517.282 C 649.687 517.018, 651.032 515.985, 651.293 514.988 C 651.554 513.991, 651.821 504.023, 651.886 492.837 C 651.952 481.652, 652.296 464.962, 652.650 455.750 L 653.294 439 661.081 439 C 668.832 439, 668.869 438.987, 669.184 436.250 L 669.500 433.500 679.250 433.214 L 689 432.928 688.884 455.714 C 688.820 468.246, 688.482 485.181, 688.134 493.348 C 687.785 501.514, 687.805 508.383, 688.178 508.612 C 689.526 509.441, 689.850 505.048, 690.438 478 C 690.767 462.875, 691.300 446.868, 691.622 442.428 L 692.207 434.356 702.195 432.103 C 707.689 430.864, 712.418 430.085, 712.705 430.372 C 713.202 430.869, 711.517 482.501, 710.506 497.750 C 710.030 504.925, 710.319 505.582, 713.418 504.393 C 714.815 503.857, 715 500.066, 715 472.044 C 715 454.586, 715.285 436.925, 715.634 432.797 L 716.269 425.292 728.884 422.642 C 735.823 421.184, 742.288 419.994, 743.250 419.996 C 744.886 420, 745 422.495, 745 458.366 L 745 496.731 749.250 495.909 C 751.587 495.457, 753.837 495.068, 754.250 495.044 C 754.663 495.020, 755 475.875, 755 452.500 C 755 404.857, 755.811 409.338, 747.500 411.058 M 382 413.433 C 382 416.072, 383.610 416.867, 388.500 416.640 C 390.987 416.524, 391.554 416.030, 391.816 413.750 C 392.125 411.070, 392.003 411, 387.066 411 C 382.366 411, 382 411.176, 382 413.433 M 434.350 411.766 C 432.450 412.978, 432.383 416.159, 434.231 417.350 C 436.679 418.928, 439.959 415.743, 438.412 413.291 C 437.131 411.261, 435.879 410.791, 434.350 411.766 M 481.667 412.667 C 481.300 413.033, 481 414.383, 481 415.667 C 481 417.472, 481.551 418, 483.433 418 C 485.913 418, 487.748 415.020, 486.506 413.009 C 485.803 411.872, 482.682 411.651, 481.667 412.667 M 418.593 414.550 C 416.464 416.679, 416.927 419.500, 419.405 419.500 C 422.309 419.500, 423.827 416.398, 421.876 414.447 C 420.422 412.994, 420.140 413.003, 418.593 414.550 M 404.250 414.718 C 403.563 414.965, 403 416.254, 403 417.583 C 403 419.466, 403.529 420, 405.393 420 C 407.357 420, 409 418.385, 409 416.453 C 409 415.607, 405.419 414.299, 404.250 414.718 M 737.851 424.482 C 737.563 424.770, 733.316 425.813, 728.414 426.799 L 719.500 428.591 719.238 465.699 L 718.976 502.807 727.738 500.919 C 732.557 499.881, 737.495 498.592, 738.711 498.055 L 740.923 497.078 740.711 460.873 C 740.513 426.855, 740.146 422.187, 737.851 424.482 M 701.329 436.182 L 696.159 437.127 695.609 444.314 C 695.307 448.266, 694.786 464.269, 694.451 479.875 L 693.842 508.251 698.549 507.545 C 701.138 507.157, 703.817 506.624, 704.503 506.360 C 705.919 505.817, 706.665 496.381, 707.499 468.500 C 707.795 458.600, 708.285 447.012, 708.587 442.750 C 709.017 436.690, 708.850 435.026, 707.819 435.119 C 707.093 435.184, 704.173 435.663, 701.329 436.182 M 673.543 437.250 C 673.326 437.938, 672.949 455.093, 672.705 475.374 L 672.261 512.248 677.266 511.655 C 680.019 511.329, 682.466 510.867, 682.704 510.629 C 682.942 510.391, 683.402 493.502, 683.726 473.098 L 684.314 436 679.126 436 C 675.852 436, 673.792 436.461, 673.543 437.250 M 541 441.082 C 528.660 442.415, 484.820 445, 474.557 445 L 465 445 465 490 C 465 529.333, 465.189 535, 466.500 535 C 467.793 535, 468.030 531.097, 468.218 506.750 C 468.338 491.212, 468.530 476.475, 468.645 474 C 468.760 471.525, 468.887 468.680, 468.927 467.677 C 468.990 466.101, 469.778 465.891, 474.750 466.121 C 478.636 466.301, 480.541 466.001, 480.625 465.194 C 480.694 464.537, 480.806 461.525, 480.875 458.500 L 481 453 488.500 453 L 496 453 496 455.833 C 496 457.392, 496.202 458.869, 496.449 459.116 C 496.696 459.363, 499.284 459.325, 502.199 459.033 C 506.942 458.556, 507.468 458.270, 507.199 456.319 C 506.935 454.410, 507.496 454.058, 511.699 453.493 C 522.159 452.087, 521.463 451.716, 521.801 458.879 L 522.102 465.258 526.691 464.629 C 529.214 464.283, 532.116 464, 533.140 464 C 534.790 464, 535 463.144, 535 456.433 C 535 449.693, 535.192 448.922, 536.750 449.387 C 537.712 449.675, 540.750 450.439, 543.500 451.086 C 547.025 451.915, 549.754 453.465, 552.750 456.339 L 557 460.416 556.991 455.458 C 556.987 452.731, 556.699 448.137, 556.352 445.250 L 555.721 440 552.111 440.136 C 550.125 440.210, 545.125 440.636, 541 441.082 M 584.387 444.256 L 575.273 446.248 574.623 466.874 C 574.265 478.218, 573.687 496.439, 573.337 507.365 L 572.702 527.231 579.101 526.504 C 582.620 526.105, 587.300 525.479, 589.500 525.114 L 593.500 524.451 594.131 515.475 C 594.479 510.539, 595.100 491.988, 595.511 474.250 C 596.142 447.106, 596.042 442.021, 594.880 442.131 C 594.121 442.203, 589.399 443.159, 584.387 444.256 M 265 452.815 L 265 462.909 268.250 463.471 C 276.582 464.909, 276.196 465.125, 280.266 456.745 L 284.033 448.989 291.266 449.622 C 295.245 449.970, 298.786 450.535, 299.135 450.878 C 299.709 451.440, 296.831 513.044, 295.638 525.750 C 295.201 530.399, 295.360 531, 297.027 531 C 298.383 531, 299.047 530.091, 299.403 527.750 C 299.914 524.382, 300.017 523.010, 302.481 486.500 C 303.297 474.400, 304.221 462.619, 304.533 460.321 L 305.101 456.142 308.801 456.704 C 310.835 457.013, 316.775 458.003, 322 458.905 L 331.500 460.544 331.305 465.022 C 331.022 471.530, 327.089 521.572, 326.376 527.750 L 325.770 533 330.035 533 L 334.301 533 333.587 499.744 C 333.194 481.453, 333.189 462.989, 333.577 458.712 L 334.282 450.937 345.391 451.219 L 356.500 451.500 356.629 492.500 L 356.757 533.500 359.772 533.805 L 362.787 534.111 363.396 519.805 C 363.731 511.937, 364.402 493.889, 364.887 479.699 C 365.372 465.508, 366.029 453.638, 366.346 453.320 C 367.013 452.653, 382.231 454.876, 383.656 455.849 C 384.181 456.207, 385.609 473.814, 386.830 494.975 C 388.051 516.137, 389.489 533.889, 390.025 534.425 C 390.658 535.058, 391.001 527.177, 391.004 511.950 C 391.006 499.053, 391.298 482.148, 391.653 474.383 L 392.299 460.267 399.399 459.098 C 403.305 458.455, 408.035 457.686, 409.910 457.389 L 413.321 456.849 412.619 496.506 C 411.951 534.291, 412.002 536.146, 413.709 535.818 C 415.382 535.497, 415.516 533.267, 415.744 501.987 C 415.877 483.569, 416.246 465.736, 416.562 462.358 L 417.136 456.216 430.120 455.493 C 437.262 455.096, 443.341 455.007, 443.629 455.296 C 443.918 455.585, 444.106 473.636, 444.047 495.411 L 443.939 535 450.616 535 L 457.293 535 456.647 527.349 C 456.291 523.141, 456 502.960, 456 482.501 L 456 445.304 374.750 444.643 C 330.063 444.279, 287.087 443.698, 279.250 443.351 L 265 442.720 265 452.815 M 656.977 445.250 C 656.887 454.243, 655.913 490.939, 655.473 501.893 L 654.935 515.287 660.610 514.701 C 663.731 514.379, 666.616 513.752, 667.020 513.308 C 667.424 512.863, 668.062 496.863, 668.438 477.750 L 669.120 443 663.060 443 C 657.449 443, 656.998 443.167, 656.977 445.250 M 612.318 451.720 L 605.136 453.217 604.596 459.359 C 603.779 468.665, 601.771 523.104, 602.228 523.561 C 602.790 524.123, 617.910 521.424, 618.716 520.617 C 619.350 519.983, 620.377 497.739, 621.271 465.250 C 621.565 454.566, 621.363 450.033, 620.596 450.112 C 619.993 450.173, 616.268 450.897, 612.318 451.720 M 635.217 451.486 C 631.761 452.171, 628.773 452.905, 628.576 453.116 C 628.379 453.327, 627.887 468.736, 627.483 487.357 C 626.771 520.174, 626.807 521.198, 628.624 520.676 C 629.656 520.380, 633.087 519.625, 636.250 518.998 L 642 517.858 642.003 504.179 C 642.004 496.656, 642.300 481.387, 642.661 470.250 C 643.050 458.268, 642.946 450.049, 642.409 450.119 C 641.909 450.185, 638.673 450.800, 635.217 451.486 M 285.994 456.162 C 285.985 460.607, 283.186 511.334, 282.383 521.602 L 281.749 529.703 286.105 530.287 C 288.501 530.609, 290.690 530.644, 290.968 530.365 C 291.624 529.709, 295.541 455.198, 294.949 454.646 C 294.702 454.416, 292.587 453.913, 290.250 453.526 L 286 452.824 285.994 456.162 M 339.433 455.105 C 339.228 455.438, 339.160 472.875, 339.281 493.854 L 339.500 531.997 345.603 531.999 L 351.707 532 352.353 524.349 C 352.709 520.141, 353 502.855, 353 485.934 L 353 455.171 346.402 454.835 C 342.773 454.651, 339.637 454.772, 339.433 455.105 M 539.429 486.648 C 539.776 504.717, 540.307 521.887, 540.608 524.804 L 541.157 530.107 545.329 529.804 L 549.500 529.500 549.197 519.500 C 547.812 473.787, 547.038 456.646, 546.328 455.983 C 545.873 455.558, 543.992 454.893, 542.150 454.504 L 538.799 453.797 539.429 486.648 M 369.678 457.656 C 369.305 458.028, 369 464.176, 369 471.317 C 369 478.458, 368.501 495.284, 367.890 508.707 C 367.280 522.131, 366.942 533.259, 367.140 533.436 C 367.338 533.614, 371.372 534.073, 376.105 534.457 L 384.710 535.155 384.332 527.828 C 384.124 523.797, 383.290 508.389, 382.477 493.586 C 381.665 478.783, 381 464.996, 381 462.947 C 381 459.428, 380.793 459.186, 377.250 458.558 C 375.188 458.192, 372.792 457.687, 371.928 457.436 C 371.063 457.184, 370.050 457.283, 369.678 457.656 M 484.667 457.667 C 484.300 458.033, 484 475.384, 484 496.224 L 484 534.115 488.250 533.807 L 492.500 533.500 492.791 495.250 L 493.082 457 489.208 457 C 487.077 457, 485.033 457.300, 484.667 457.667 M 511.706 457.750 C 511.480 458.163, 511.511 475.038, 511.777 495.250 L 512.259 532 516.048 532 L 519.837 532 519.393 508.750 C 519.148 495.962, 518.688 479.087, 518.370 471.250 L 517.792 457 514.955 457 C 513.395 457, 511.933 457.337, 511.706 457.750 M 425.500 459.907 L 420.500 460.500 420.238 497.750 L 419.976 535 429.988 535 L 440 535 440.053 507.250 C 440.082 491.988, 440.326 474.887, 440.595 469.250 L 441.083 459 435.792 459.157 C 432.881 459.244, 428.250 459.581, 425.500 459.907 M 307.959 464.250 C 307.936 466.038, 306.877 481.675, 305.604 499 C 304.332 516.325, 303.463 530.699, 303.672 530.943 C 303.882 531.187, 308.043 531.577, 312.919 531.810 L 321.785 532.234 322.351 528.367 C 322.663 526.240, 323.170 520.900, 323.478 516.500 C 323.787 512.100, 324.707 500.175, 325.524 490 C 326.340 479.825, 327.119 469.701, 327.254 467.503 L 327.500 463.507 320 462.316 C 308.224 460.447, 308.007 460.482, 307.959 464.250 M 398.883 462.703 C 396.549 463.063, 396.198 463.670, 395.642 468.304 C 395.298 471.162, 395.013 487.337, 395.009 504.250 L 395 535 401.500 535 L 408 535 408.013 531.250 C 408.020 529.188, 408.312 512.763, 408.662 494.750 L 409.298 462 405.399 462.150 C 403.255 462.232, 400.322 462.481, 398.883 462.703 M 503.250 462.789 C 501.028 463.020, 499.984 463.660, 499.950 464.813 C 499.707 472.954, 500.191 532.524, 500.502 532.836 C 500.725 533.058, 502.503 532.941, 504.453 532.575 L 508 531.909 508 497.514 C 508 478.596, 507.663 462.968, 507.250 462.785 C 506.837 462.602, 505.038 462.604, 503.250 462.789 M 264.991 493.250 C 264.987 507.688, 264.699 521.862, 264.352 524.750 L 263.721 530 270.361 530 L 277 530 277.014 507.750 C 277.021 495.512, 277.304 481.837, 277.643 477.361 L 278.258 469.221 273.080 468.111 C 270.232 467.500, 267.249 467, 266.451 467 C 265.220 467, 264.999 470.983, 264.991 493.250 M 528.534 468.466 L 522.568 469.500 522.864 500 C 523.027 516.775, 523.462 530.765, 523.830 531.088 C 524.199 531.412, 527.200 531.412, 530.500 531.088 L 536.500 530.500 536.131 507 C 535.929 494.075, 535.479 479.885, 535.131 475.466 L 534.500 467.432 528.534 468.466 M 472.455 471.258 C 472.188 471.952, 472.090 486.465, 472.235 503.510 L 472.500 534.500 476.500 534.500 C 479.087 534.500, 480.465 534.058, 480.400 533.250 C 480.345 532.563, 480.232 518.163, 480.148 501.250 L 479.996 470.500 476.467 470.248 C 474.346 470.097, 472.746 470.499, 472.455 471.258 M 557.225 493 C 557.097 497.125, 556.712 507.025, 556.368 515 C 555.899 525.897, 556.030 529.234, 556.893 528.429 C 557.706 527.671, 557.956 521.240, 557.749 506.429 C 557.589 494.918, 557.353 488.875, 557.225 493 M 728.314 490.207 C 726.171 492.971, 726.037 493.894, 727.560 495.417 C 729.911 497.768, 733.220 495.734, 732.810 492.191 C 732.472 489.274, 729.913 488.144, 728.314 490.207 M 698.582 499.316 C 696.465 500.865, 696.819 504.341, 699.140 504.788 C 701.772 505.295, 704.189 502.223, 702.963 499.931 C 701.744 497.653, 701 497.548, 698.582 499.316 M 753.917 501.410 C 753.343 501.973, 676.981 517.238, 658.500 520.483 C 650.250 521.931, 639.900 523.764, 635.500 524.555 C 560.162 538.098, 475.510 543.114, 375.218 539.977 C 342.049 538.939, 276.030 535.483, 268.250 534.377 C 264.068 533.783, 264 533.820, 264 536.745 L 264 539.717 275.750 540.394 C 345.732 544.430, 436.090 546.069, 479.500 544.089 C 558.843 540.471, 639.011 529.990, 726 511.863 C 739.475 509.055, 751.737 506.536, 753.250 506.265 C 754.763 505.995, 756 505.411, 756 504.968 C 756 504.526, 756.273 503.452, 756.607 502.582 C 757.154 501.156, 755.089 500.257, 753.917 501.410 M 660.075 505.409 C 658.122 507.762, 659.165 510.500, 662.014 510.500 C 664.107 510.500, 664.500 510.028, 664.500 507.514 C 664.500 504.138, 662.084 502.989, 660.075 505.409 M 675 506.500 C 675 508.500, 675.500 509, 677.500 509 C 679.500 509, 680 508.500, 680 506.500 C 680 504.500, 679.500 504, 677.500 504 C 675.500 504, 675 504.500, 675 506.500 M 632.152 510.885 C 629.682 512.450, 631.243 515.500, 634.514 515.500 C 637.028 515.500, 637.550 515.065, 637.816 512.750 C 638.081 510.447, 637.756 510.002, 635.816 510.015 C 634.542 510.024, 632.893 510.415, 632.152 510.885 M 608.500 511.732 C 605.940 512.371, 605.113 513.717, 605.760 516.191 C 606.136 517.629, 606.846 518.008, 608.388 517.594 C 609.549 517.282, 611.513 517.021, 612.750 517.014 C 614.580 517.003, 615 516.440, 615 514 C 615 510.880, 613.711 510.430, 608.500 511.732 M 579.667 513.667 C 579.300 514.033, 579 515.608, 579 517.167 C 579 520.183, 579.637 520.423, 584.875 519.375 C 587.505 518.849, 588 518.295, 588 515.875 C 588 513.208, 587.722 513, 584.167 513 C 582.058 513, 580.033 513.300, 579.667 513.667 M 528.040 519.452 C 526.794 520.954, 527.484 525, 528.986 525 C 531.337 525, 533 523.550, 533 521.500 C 533 520.243, 532.288 518.941, 531.418 518.607 C 529.332 517.806, 529.425 517.783, 528.040 519.452 M 311 522 C 311 524.828, 311.268 525.102, 313.750 524.816 C 315.932 524.565, 316.500 523.984, 316.500 522 C 316.500 520.016, 315.932 519.435, 313.750 519.184 C 311.268 518.898, 311 519.172, 311 522 M 267.362 521.500 C 266.486 523.781, 267.711 526, 269.846 526 C 272.733 526, 274.565 523.386, 273 521.500 C 272.315 520.675, 270.896 520, 269.846 520 C 268.796 520, 267.678 520.675, 267.362 521.500 M 542.408 522.378 C 541.599 524.487, 542.735 526, 545.129 526 C 546.639 526, 547.060 525.443, 546.820 523.760 C 546.447 521.146, 543.264 520.149, 542.408 522.378 M 284.362 523.500 C 283.477 525.805, 284.720 528, 286.910 528 C 289.385 528, 290.313 526.562, 289.497 523.991 C 288.757 521.661, 285.198 521.320, 284.362 523.500 M 343 525 C 343 527.925, 343.209 528.107, 346.250 527.813 C 348.966 527.551, 349.500 527.090, 349.500 525 C 349.500 522.910, 348.966 522.449, 346.250 522.187 C 343.209 521.893, 343 522.075, 343 525 M 373.075 524.409 C 371.122 526.762, 372.165 529.500, 375.014 529.500 C 377.107 529.500, 377.500 529.028, 377.500 526.514 C 377.500 523.138, 375.084 521.989, 373.075 524.409 M 426.930 524.584 C 425.589 526.200, 426.509 529.003, 428.612 529.704 C 430.663 530.388, 433.262 527.402, 432.555 525.174 C 431.747 522.629, 428.809 522.320, 426.930 524.584 M 398.607 525.582 C 397.536 528.372, 397.950 529.754, 400.018 530.294 C 402.426 530.924, 405.347 528.347, 404.558 526.289 C 404.251 525.490, 404 524.648, 404 524.418 C 404 523.189, 399.121 524.242, 398.607 525.582 M 486.180 527.250 C 486.390 528.727, 487.187 529.500, 488.500 529.500 C 489.813 529.500, 490.610 528.727, 490.820 527.250 C 491.082 525.404, 490.665 525, 488.500 525 C 486.335 525, 485.918 525.404, 486.180 527.250 M 502 527.570 C 502 529.662, 502.418 530.080, 504.250 529.820 C 505.696 529.614, 506.614 528.696, 506.820 527.250 C 507.080 525.418, 506.662 525, 504.570 525 C 502.477 525, 502 525.477, 502 527.570 M 474.773 527.201 C 473.989 529.330, 475.035 531, 477.153 531 C 478.638 531, 479.059 530.435, 478.820 528.760 C 478.466 526.284, 475.528 525.152, 474.773 527.201 M 736.500 531.519 C 699.905 537.076, 653.999 542.382, 592.397 548.173 L 569.294 550.344 568.647 563.830 C 568.291 571.248, 568 590.745, 568 607.158 L 568 637 571.941 637 C 574.109 637, 576.090 636.663, 576.345 636.250 C 576.599 635.837, 577.100 619.300, 577.457 599.500 C 577.814 579.700, 578.330 562.431, 578.604 561.124 L 579.102 558.747 590.301 559.465 C 596.460 559.860, 606.675 560.479, 613 560.841 L 624.500 561.500 624.500 570.500 C 624.500 575.450, 624.118 592.663, 623.650 608.750 L 622.800 638 626.400 638 L 630 638 630 599.981 L 630 561.962 632.250 562.423 C 633.487 562.676, 637.313 563.157, 640.750 563.491 C 646.986 564.098, 647 564.093, 647 561.470 L 647 558.841 653.750 559.535 C 657.462 559.917, 660.950 560.290, 661.500 560.365 C 662.050 560.439, 662.641 559.038, 662.813 557.250 L 663.127 554 673.563 554 C 681.238 554, 684.004 554.331, 684.015 555.250 C 684.026 556.114, 684.258 556.160, 684.765 555.401 C 685.836 553.799, 705.390 552.790, 706.860 554.260 C 707.738 555.138, 708.360 554.944, 709.428 553.459 C 713.084 548.377, 713.404 548.247, 727.817 546.016 C 735.691 544.797, 742.288 543.957, 742.478 544.150 C 742.668 544.342, 743.314 557.775, 743.914 574 C 744.514 590.225, 745.297 610.835, 745.655 619.800 L 746.305 636.100 750.403 635.800 L 754.500 635.500 754.759 582.250 C 755.003 531.964, 754.920 529.007, 753.259 529.121 C 752.291 529.187, 744.750 530.267, 736.500 531.519 M 727 549.948 L 717.500 551.605 717.159 558.053 C 716.765 565.484, 718.751 625.085, 719.635 632.395 L 720.228 637.290 730.781 636.644 C 736.586 636.289, 741.537 635.797, 741.783 635.550 C 742.030 635.304, 741.722 621.016, 741.099 603.801 C 739.290 553.822, 738.928 547.984, 737.649 548.145 C 737.017 548.225, 732.225 549.037, 727 549.948 M 542.500 552.067 C 525.406 553.281, 485.764 555, 474.847 555 L 465 555 465 558.893 C 465 563.259, 466.004 564, 471.922 564 L 475.680 564 476.338 588.750 C 476.700 602.362, 477.101 618.900, 477.229 625.500 C 477.357 632.100, 477.696 621.300, 477.981 601.500 L 478.500 565.500 481 565.555 C 482.375 565.586, 485.188 565.944, 487.250 566.351 C 490.760 567.043, 491 566.935, 491 564.652 C 491 561.527, 491.970 561.242, 500.750 561.781 C 506.868 562.156, 508 562.504, 508 564.006 C 508 566.242, 509.944 567, 515.675 567 C 519.148 567, 520.294 566.593, 520.649 565.233 C 521.050 563.702, 522.091 563.516, 528.472 563.838 C 535.567 564.197, 535.845 564.125, 536.167 561.855 C 536.493 559.549, 536.688 559.508, 545.500 559.862 C 550.450 560.061, 554.861 560.439, 555.303 560.704 C 556.115 561.189, 555.359 622.470, 554.432 631.250 C 553.981 635.524, 554.135 636, 555.966 636 C 557.973 636, 558 635.530, 558 601.151 C 558 581.984, 558.291 562.859, 558.647 558.651 L 559.293 551 556.397 551.143 C 554.804 551.221, 548.550 551.637, 542.500 552.067 M 264.750 554.567 C 264.337 554.988, 264 557.147, 264 559.363 L 264 563.392 267.298 560.196 C 270.565 557.029, 270.687 557, 280.716 557 C 286.282 557, 291.548 557.273, 292.418 557.607 C 293.565 558.047, 294 559.572, 294 563.153 L 294 568.091 300.622 567.796 L 307.243 567.500 307.468 563.737 C 307.592 561.667, 307.875 559.825, 308.097 559.643 C 308.319 559.461, 312.817 559.518, 318.093 559.769 L 327.686 560.225 328.343 584.274 C 328.704 597.502, 329 615.226, 329 623.662 C 329 634.044, 329.351 639, 330.088 639 C 330.858 639, 331.077 627.704, 330.838 600.250 L 330.500 561.500 338.844 560.688 C 346.021 559.989, 347.356 560.104, 348.382 561.508 C 349.411 562.915, 350.537 563.009, 356.538 562.190 C 360.367 561.667, 363.837 561.437, 364.250 561.679 C 364.663 561.920, 365 568.994, 365 577.397 C 365 585.801, 365.297 602.898, 365.661 615.390 L 366.322 638.103 369.411 637.801 L 372.500 637.500 372.762 600.750 C 372.907 580.538, 373.357 563.996, 373.762 563.991 C 378.196 563.936, 400.689 560.702, 402.178 559.905 C 403.279 559.315, 407.289 559.051, 411.320 559.303 L 418.500 559.751 418.624 598.125 L 418.747 636.500 427.987 636.303 C 433.069 636.195, 437.335 635.970, 437.469 635.803 C 437.602 635.637, 436.690 626.686, 435.442 615.912 C 431.642 583.101, 430.784 570.756, 432.239 569.820 C 434.270 568.514, 444.227 564.894, 444.644 565.311 C 445.003 565.670, 450.203 589.899, 453.699 607.500 C 454.573 611.900, 455.673 615.928, 456.144 616.450 C 456.621 616.979, 457 603.877, 457 586.864 L 457 556.327 366.250 555.641 C 316.337 555.263, 273.250 554.694, 270.500 554.377 C 267.750 554.060, 265.163 554.145, 264.750 554.567 M 692.500 557.913 L 687.500 558.500 687.189 573.500 C 687.018 581.750, 686.469 599.477, 685.969 612.894 C 685.469 626.311, 685.298 637.673, 685.589 638.144 C 685.880 638.615, 689.641 639, 693.948 639 L 701.777 639 702.356 635.750 C 702.674 633.962, 703.191 617.200, 703.504 598.500 C 703.818 579.800, 704.288 562.813, 704.549 560.750 L 705.024 557 701.262 557.163 C 699.193 557.253, 695.250 557.590, 692.500 557.913 M 666.885 575.250 C 666.822 584.737, 666.481 602.175, 666.127 614 C 665.772 625.825, 665.486 635.550, 665.491 635.611 C 665.496 635.672, 668.042 636.008, 671.149 636.358 L 676.798 636.994 677.372 630.247 C 677.688 626.536, 678.236 608.763, 678.589 590.750 L 679.231 558 673.115 558 L 667 558 666.885 575.250 M 273.375 578.750 C 273.708 588.513, 274.262 606.063, 274.606 617.750 L 275.233 639 283.765 639 L 292.297 639 291.649 619.500 C 291.292 608.775, 290.708 591.225, 290.351 580.500 L 289.703 561 281.236 561 L 272.770 561 273.375 578.750 M 311.768 563.750 C 311.383 564.576, 312.842 639.247, 313.248 639.464 C 313.387 639.538, 316.101 639.422, 319.279 639.205 L 325.058 638.812 324.446 602.156 C 324.110 581.995, 323.661 564.938, 323.449 564.250 C 323.028 562.888, 312.383 562.432, 311.768 563.750 M 405 599 C 405 618.800, 405 635.337, 405 635.750 C 405 636.163, 407.137 636.500, 409.750 636.500 L 414.500 636.500 414.762 599.750 L 415.025 563 410.012 563 L 405 563 405 599 M 539.997 582.250 C 539.995 592.837, 539.699 609.263, 539.340 618.750 L 538.685 636 544.257 636 L 549.829 636 550.378 628.750 C 550.680 624.763, 551.173 608.624, 551.473 592.887 L 552.019 564.274 547.370 563.637 C 544.813 563.287, 542.109 563, 541.360 563 C 540.260 563, 539.999 566.685, 539.997 582.250 M 581.617 596.250 C 581.239 614.538, 580.676 630.934, 580.365 632.686 C 579.832 635.697, 579.999 635.909, 583.393 636.546 C 589.864 637.760, 589.714 638.216, 590.385 615.325 C 590.720 603.871, 591.246 587.413, 591.553 578.750 L 592.111 563 587.208 563 L 582.305 563 581.617 596.250 M 650.661 584.087 C 650.298 595.766, 650 612.922, 650 622.211 L 650 639.100 655.659 638.800 L 661.317 638.500 661.589 634.500 C 661.739 632.300, 662.129 615.538, 662.456 597.250 L 663.050 564 659.275 563.986 C 657.199 563.979, 654.560 563.720, 653.411 563.412 C 651.356 562.860, 651.312 563.187, 650.661 584.087 M 337 564.895 C 334.135 565.692, 334.384 560.571, 334.776 610.500 L 335 639 340.650 639 L 346.299 639 345.660 619.750 C 345.308 609.163, 345.016 592.288, 345.010 582.250 L 345 564 342.250 564.100 C 340.738 564.155, 338.375 564.512, 337 564.895 M 600.521 565 C 600.365 565.275, 599.955 575.175, 599.608 587 C 599.262 598.825, 598.703 614.929, 598.367 622.786 L 597.755 637.073 608.127 636.786 L 618.500 636.500 619.150 617 C 619.507 606.275, 620.078 590.218, 620.418 581.317 L 621.037 565.134 610.920 564.817 C 605.356 564.643, 600.676 564.725, 600.521 565 M 495.667 565.667 C 495.300 566.033, 495 582.259, 495 601.724 L 495 637.115 499.250 636.807 L 503.500 636.500 503.763 600.750 L 504.025 565 500.179 565 C 498.064 565, 496.033 565.300, 495.667 565.667 M 352.250 566.723 L 349 567.127 349 581.402 C 349 589.254, 349.297 605.200, 349.659 616.839 L 350.318 638 356.319 638 L 362.320 638 361.662 613.250 C 361.300 599.638, 361.003 583.438, 361.002 577.250 L 361 566 358.250 566.160 C 356.738 566.248, 354.038 566.502, 352.250 566.723 M 380.750 566.728 L 377 567.121 376.971 594.810 C 376.954 610.040, 376.678 626.282, 376.356 630.905 L 375.771 639.311 384.994 638.713 C 390.067 638.385, 394.342 637.977, 394.495 637.808 C 394.648 637.639, 394.959 621.413, 395.186 601.750 L 395.600 566 390.050 566.168 C 386.997 566.261, 382.813 566.513, 380.750 566.728 M 464.558 601.750 L 464.841 636.500 468.670 636.500 L 472.500 636.500 472.137 602.500 C 471.938 583.800, 471.574 568.163, 471.328 567.750 C 471.083 567.337, 469.396 567, 467.579 567 L 464.276 567 464.558 601.750 M 523.607 600.701 C 523.222 619.038, 523.180 634.482, 523.513 635.021 C 523.846 635.559, 526.505 636, 529.423 636 L 534.728 636 535.464 602.434 C 535.869 583.972, 536.043 568.728, 535.850 568.558 C 535.658 568.387, 532.981 568.048, 529.903 567.804 L 524.306 567.361 523.607 600.701 M 634 603.050 L 634 639.100 639.750 638.800 L 645.500 638.500 645.719 630 C 645.839 625.325, 646.075 609.505, 646.243 594.844 L 646.549 568.188 643.024 567.605 C 641.086 567.284, 638.263 567.017, 636.750 567.011 L 634 567 634 603.050 M 438.230 571.252 C 435.938 571.987, 435.104 572.779, 435.441 573.900 C 435.705 574.780, 438.187 586.975, 440.956 601 C 443.725 615.025, 446.331 628.075, 446.746 630 C 447.428 633.165, 447.787 633.468, 450.500 633.164 C 453.897 632.784, 455.675 631.535, 454.156 630.597 C 453.596 630.251, 452.856 630.425, 452.510 630.984 C 452.165 631.543, 450.976 632, 449.868 632 C 446.639 632, 447.969 628.563, 451.348 628.175 C 453.846 627.888, 454.103 627.546, 453.531 625.266 C 452.487 621.107, 445.304 585.167, 443.934 577.250 C 443.244 573.263, 442.414 570.046, 442.090 570.102 C 441.765 570.158, 440.029 570.676, 438.230 571.252 M 482 603.500 L 482 637 486.500 637 L 491 637 491 604.125 L 491 571.250 487.875 570.625 C 486.156 570.281, 484.131 570, 483.375 570 C 482.236 570, 482 575.742, 482 603.500 M 508.862 598.143 C 508.787 613.739, 508.674 628.525, 508.612 631 L 508.500 635.500 513.500 635.500 L 518.500 635.500 518.784 603.250 L 519.067 571 515.615 571 C 513.717 571, 511.452 570.727, 510.582 570.393 C 509.164 569.849, 508.986 572.731, 508.862 598.143 M 294.702 572.750 C 294.204 573.647, 295.964 635.952, 296.538 637.750 C 296.796 638.557, 298.955 639, 302.629 639 L 308.320 639 307.660 614.838 C 307.297 601.549, 307 586.474, 307 581.338 L 307 572 301.059 572 C 297.791 572, 294.931 572.337, 294.702 572.750 M 725.667 623.667 C 725.300 624.033, 725 625.633, 725 627.221 C 725 630.043, 725.109 630.103, 729.750 629.805 C 734.305 629.513, 734.513 629.366, 734.813 626.250 C 735.124 623.029, 735.088 623, 730.730 623 C 728.312 623, 726.033 623.300, 725.667 623.667 M 603 628 C 603 630.933, 603.111 631, 608 631 C 612.889 631, 613 630.933, 613 628 C 613 625.067, 612.889 625, 608 625 C 603.111 625, 603 625.067, 603 628 M 382.750 626.689 C 381.577 626.996, 381 628.130, 381 630.128 C 381 633.061, 381.077 633.105, 385.750 632.805 C 389.891 632.539, 390.543 632.194, 390.837 630.113 C 391.339 626.568, 388.238 625.255, 382.750 626.689 M 689 629 C 689 631.889, 689.167 632, 693.500 632 C 697.833 632, 698 631.889, 698 629 C 698 626.111, 697.833 626, 693.500 626 C 689.167 626, 689 626.111, 689 629 M 279 630 C 279 632.889, 279.167 633, 283.500 633 C 287.833 633, 288 632.889, 288 630 C 288 627.111, 287.833 627, 283.500 627 C 279.167 627, 279 627.111, 279 630 M 354.250 627.667 C 352.457 628.384, 352.706 632.950, 354.578 633.668 C 356.946 634.577, 359.737 631.391, 358.412 629.291 C 357.215 627.394, 356.059 626.943, 354.250 627.667 M 511.484 628.659 C 509.384 630.759, 510.109 632.500, 513.083 632.500 C 514.785 632.500, 515.590 631.872, 515.803 630.377 C 516.191 627.654, 513.543 626.600, 511.484 628.659 M 526 629.434 C 526 631.631, 526.441 632, 529.070 632 C 531.681 632, 532.091 631.664, 531.820 629.750 C 531.591 628.139, 530.719 627.410, 528.750 627.184 C 526.382 626.911, 526 627.224, 526 629.434 M 541.667 627.667 C 541.300 628.033, 541 629.158, 541 630.167 C 541 631.537, 541.758 632, 544 632 C 546.533 632, 547 631.611, 547 629.500 C 547 627.548, 546.489 627, 544.667 627 C 543.383 627, 542.033 627.300, 541.667 627.667 M 583 630 C 583 632.333, 583.444 633, 585 633 C 587.476 633, 587.822 628.530, 585.418 627.607 C 583.057 626.701, 583 626.757, 583 630 M 668.607 628.582 C 667.504 631.456, 667.964 632, 671.500 632 C 673.425 632, 675 631.587, 675 631.082 C 675 628.665, 673.572 627, 671.500 627 C 670.243 627, 668.941 627.712, 668.607 628.582 M 408.750 628.749 C 407.673 628.994, 407 630.080, 407 631.573 C 407 633.495, 407.520 634, 409.500 634 C 411.484 634, 412 633.496, 412 631.559 C 412 628.802, 411.276 628.176, 408.750 628.749 M 299.184 631.750 C 299.410 633.719, 300.139 634.591, 301.750 634.820 C 303.664 635.091, 304 634.681, 304 632.070 C 304 629.441, 303.631 629, 301.434 629 C 299.224 629, 298.911 629.382, 299.184 631.750 M 315.362 630.500 C 314.536 632.652, 315.670 635, 317.534 635 C 320.590 635, 322.842 633.113, 322.293 631.013 C 321.652 628.561, 316.259 628.162, 315.362 630.500 M 466.701 629.632 C 466.316 630.018, 466 631.415, 466 632.736 C 466 634.656, 466.452 635.075, 468.250 634.820 C 469.894 634.586, 470.500 633.831, 470.500 632.014 C 470.500 629.600, 468.185 628.149, 466.701 629.632 M 483.746 630.250 C 482.988 632.504, 484.198 635, 486.049 635 C 487.960 635, 489.569 631.730, 488.506 630.009 C 487.624 628.583, 484.250 628.754, 483.746 630.250 M 497.390 630.426 C 496.480 632.797, 497.767 635.191, 499.747 634.810 C 500.854 634.597, 501.500 633.561, 501.500 632 C 501.500 629.149, 498.344 627.941, 497.390 630.426 M 652.556 629.910 C 651.499 631.620, 653.211 634, 655.500 634 C 657.865 634, 659.028 632.425, 658.269 630.250 C 657.768 628.812, 653.395 628.551, 652.556 629.910 M 338 633.333 C 338 636.296, 338.636 636.908, 341.058 636.275 C 342.295 635.951, 343 634.902, 343 633.383 C 343 631.508, 342.467 631, 340.500 631 C 338.548 631, 338 631.511, 338 633.333 M 637.184 633.673 C 637.558 636.836, 638.919 637.511, 641.345 635.737 C 643.751 633.978, 642.482 631, 639.327 631 C 637.249 631, 636.916 631.414, 637.184 633.673" stroke="none" fill="black" fill-rule="evenodd"/>
</svg>